<svg xmlns="http://www.w3.org/2000/svg" viewBox="0 0 100 100">
  <defs>
    <!-- 主渐变 -->
    <linearGradient id="mainGrad" x1="0%" y1="0%" x2="100%" y2="100%">
      <stop offset="0%" style="stop-color:#6366f1;stop-opacity:1" />
      <stop offset="100%" style="stop-color:#8b5cf6;stop-opacity:1" />
    </linearGradient>
    
    <!-- 光效渐变 -->
    <linearGradient id="glowGrad" x1="50%" y1="0%" x2="50%" y2="100%">
      <stop offset="0%" style="stop-color:#ffffff;stop-opacity:0.5" />
      <stop offset="100%" style="stop-color:#ffffff;stop-opacity:0" />
    </linearGradient>
    
    <!-- 滤镜效果 -->
    <filter id="glow" x="-50%" y="-50%" width="200%" height="200%">
      <feGaussianBlur in="SourceGraphic" stdDeviation="2" />
    </filter>
  </defs>
  
  <!-- 背景圆 -->
  <circle cx="50" cy="50" r="45" fill="url(#mainGrad)" />
  
  <!-- 数据流动效果 -->
  <path d="M30 35 Q50 25 70 35 Q50 45 30 35" fill="#ffffff" opacity="0.2" />
  <path d="M30 50 Q50 40 70 50 Q50 60 30 50" fill="#ffffff" opacity="0.3" />
  <path d="M30 65 Q50 55 70 65 Q50 75 30 65" fill="#ffffff" opacity="0.2" />
  
  <!-- 中心图标 -->
  <g transform="translate(50,50) scale(0.6)">
    <path d="M-20 -20 L20 -20 L20 20 L-20 20 Z" 
          fill="none" 
          stroke="#ffffff" 
          stroke-width="4"
          stroke-linejoin="round" />
    <path d="M-10 -10 L10 -10 M-10 0 L10 0 M-10 10 L10 10" 
          stroke="#ffffff" 
          stroke-width="4"
          stroke-linecap="round" />
  </g>
  
  <!-- 光效装饰 -->
  <circle cx="35" cy="35" r="3" fill="#ffffff" filter="url(#glow)" />
  <circle cx="65" cy="65" r="3" fill="#ffffff" filter="url(#glow)" />
</svg> 